# xmcd
#
# Track frame offsets: 
#        150
#        28162
#        67196
#        68846
#        93362
#        94697
#        125191
#        126544
#        151277
#        152750
#        169128
#        199834
#
# Disc length: 3131 seconds
#
# Revision: 1
# Processed by: cddbd v1.5.2PL0 Copyright (c) Steve Scherf et al.
# Submitted via: ExactAudioCopyFreeDBPlugin 1.0
#
DISCID=af0c390c
DTITLE=Various Artist - Mark Hummel's Blues Harp Meltdown (Disk 1)
DYEAR=2001
DGENRE=Blues
TTITLE0=You Messed Me Up - RJ Mischo
TTITLE1=Sleepin' In The Ground - RJ Mischo
TTITLE2=Gary Smith Intro - Mark Hummel
TTITLE3=You're So Fine - Gary Smith
TTITLE4=Gary Smith Comments - Gary Smith
TTITLE5=Elevate Me Mama - Gary Smith
TTITLE6=Minor Mamba Intro - Gary Smith
TTITLE7=Minor Mamba - Gary Smith
TTITLE8=Mark Hummel Intro - Mark Hummel
TTITLE9=They Don't Want Me To Rock - Mark Hummel
TTITLE10=Can't Judge Nobody - Mark Hummel
TTITLE11=Humblebug - Mark Hummel
EXTD=YEAR: 2001
EXTT0=
EXTT1=
EXTT2=
EXTT3=
EXTT4=
EXTT5=
EXTT6=
EXTT7=
EXTT8=
EXTT9=
EXTT10=
EXTT11=
PLAYORDER=
